<svg id="Capa_1" data-name="Capa 1" xmlns="http://www.w3.org/2000/svg" viewBox="0 0 620.43 605.11"><defs></defs><path class="cls-1" d="M420.94,563.2a283.56,283.56,0,0,1-221.23.29l-20.64,0a291.5,291.5,0,0,0,262.5-.34Z"></path><path class="cls-1" d="M559.9,454a290.49,290.49,0,0,0,42.41-147.16c2.4-161-126.63-293.9-287.6-296.29S20.73,137.22,18.33,298.19A290.2,290.2,0,0,0,54.65,443.55L54.93,425A281,281,0,0,1,27.08,298.32C29.4,142.15,158.33,17,314.58,19.32s281.31,131.26,279,287.42A282,282,0,0,1,560.17,436Z"></path><path class="cls-1" d="M143.65,472.36c0-10.6-2.19-19.23-6.27-25.89-4.24-6.72-9.57-11.63-16-14.56a49,49,0,0,0-20.25-4.46c-10.52,0-19.52,1.89-26.9,5.61a38.3,38.3,0,0,0-16.68,15.35A45,45,0,0,0,52,470.63a46,46,0,0,0,5.54,22.52,39.57,39.57,0,0,0,16.67,15.73c7.38,3.87,16.37,5.78,26.9,5.78,9.79,0,17.91-.93,24.2-2.76a96,96,0,0,0,16.09-6.21V487.27q-18.52,8.33-33.85,8.32a27.17,27.17,0,0,1-15.64-4.84,20.25,20.25,0,0,1-8.7-12.5l60.47,0Zm-61.33-8.88c0-5.26,1.61-9.58,4.76-12.79s7.23-4.9,12.28-4.89,9.06,1.61,11.84,4.75,4,7.54,4,12.95Z"></path><path class="cls-1" d="M232.85,462.75a39.64,39.64,0,0,0-5-10.38,37.92,37.92,0,0,0-12.49-11.49,35.51,35.51,0,0,0-7.24-3.14,55.22,55.22,0,0,0-9.65-2.2,92.79,92.79,0,0,0-12.87-.74l-33.11,0,0,78.52,43.06,0c10.38,0,18.34-2.18,24.05-6.64a41.48,41.48,0,0,0,10.53-11.83c3-4.83,4.47-11.33,4.48-19.3a44.76,44.76,0,0,0-1.75-12.8m-29.63,29.89A30,30,0,0,1,186.84,497H176.61l0-46.42h10.24a31.35,31.35,0,0,1,10.6,1.91,17.51,17.51,0,0,1,8.91,7.1q3.74,5.37,3.72,14.91c0,9.14-2.27,15.21-6.88,18.13"></path><rect class="cls-1" x="243.28" y="434.81" width="24.1" height="78.52"></rect><path class="cls-1" d="M365.21,513.39h-28.1V471.05a27.16,27.16,0,0,0-2.2-11.29q-2.18-4.81-9.52-4.81a14.41,14.41,0,0,0-6.08,1.26,18.1,18.1,0,0,0-4.77,3.24,44,44,0,0,0-3.48,3.83c-.93,1.3-1.91,2.57-2.92,4l0,46.13H280l0-78.53,28.11,0V446.1c4.45-4.67,8.9-8,13.4-9.83a38.29,38.29,0,0,1,14.92-2.82c19.2,0,28.74,11.27,28.73,33.81Z"></path><path class="cls-1" d="M460.27,478.26c0,6.69-1.3,12.46-3.85,17.2a30.78,30.78,0,0,1-10.17,11.23,44.54,44.54,0,0,1-13.63,5.91A59.58,59.58,0,0,1,418,514.43,58.62,58.62,0,0,1,398.23,511a35,35,0,0,1-16.09-11.56q-6.43-8.13-6.44-21.22l0-43.34h24.09l0,37.23a31.94,31.94,0,0,0,2.29,12.8,15.45,15.45,0,0,0,6.37,7.48,20.57,20.57,0,0,0,19,0,15.48,15.48,0,0,0,6.34-7.37,30.94,30.94,0,0,0,2.29-12.75l0-37.38H460.3Z"></path><path class="cls-1" d="M556.76,513.49H528.69l0-40.69v-1.64a26.85,26.85,0,0,0-2.19-11.29q-2.13-4.82-9.46-4.81a14.35,14.35,0,0,0-6.12,1.26,17.53,17.53,0,0,0-4.73,3.25,42.3,42.3,0,0,0-3.53,3.83c-1,1.29-2,2.56-2.91,3.94l0,46.13H471.6l0-78.53,28.15,0v11.27c4.48-4.68,8.9-8,13.43-9.84a38.17,38.17,0,0,1,14.88-2.83c19.18,0,28.71,11.28,28.7,33.83Z"></path><path class="cls-1" d="M279.79,402.69l-74.72,0,0-77.06c3.94,13.31,21.17,60,74.68,77.1"></path><path class="cls-1" d="M416.21,265.24l0,28.15H394.11a78.62,78.62,0,0,1-154.7,19.73l94.16.05,0-41.6-93.58,0a78.6,78.6,0,0,1,151.19.73Z"></path><path class="cls-1" d="M416.16,349.1l0,53.66-64.91,0c45.33-15.33,63.85-51.37,64.94-53.63"></path><path class="cls-1" d="M416.21,265.24l0,28.15H394.11a78.62,78.62,0,0,1-154.7,19.73l94.16.05,0-41.6-93.58,0a78.6,78.6,0,0,1,151.19.73Z"></path><path class="cls-1" d="M416.53,72.39l-.09,165c0-.07-.15-.22-.22-.29C378,174.28,315.51,178.34,315.51,178.34c-79.25,0-105.46,67.13-110.37,82.19-.66,1.9-.94,3-.94,3l.09-191.25Z"></path><path class="cls-1" d="M279.79,402.69l-75.67,0,0-80.64s.29,1.32,1,3.58c3.94,13.31,21.17,60,74.68,77.1"></path><path class="cls-1" d="M416.23,349l-.1,53.73-64.91,0c45.33-15.33,63.84-51.37,64.94-53.63a.07.07,0,0,0,.07-.07"></path><polygon class="cls-1" points="36.55 531 23.26 531 23.26 536.3 35.45 536.3 35.45 540.78 23.26 540.78 23.26 547.31 37.13 547.31 37.13 551.75 18.08 551.75 18.08 526.54 36.55 526.54 36.55 531"></polygon><path class="cls-1" d="M46.54,530.92h5c2.25,0,5.79.61,5.79,8,0,4.18-1.4,8.51-5.65,8.51H46.54v-16.5m-5.15,20.83H52.27c8.26,0,10.46-7.79,10.46-13.19,0-4.76-1.8-12-10.28-12H41.39Z"></path><rect class="cls-1" x="66.18" y="526.54" width="5.31" height="25.22"></rect><path class="cls-1" d="M92.37,534.81c-.44-1.5-1.23-4.38-5.51-4.38-2.59,0-6.28,1.71-6.28,8.84,0,4.55,1.78,8.56,6.28,8.56,2.83,0,4.85-1.62,5.51-4.67h5.21c-1,5.41-4.59,9.28-10.89,9.28-6.69,0-11.48-4.53-11.48-13.22s5.12-13.33,11.59-13.33c7.45,0,10.54,5.15,10.78,8.92Z"></path><rect class="cls-1" x="101.16" y="526.54" width="5.22" height="25.22"></rect><path class="cls-1" d="M115.38,539.15c0-7.06,4-8.81,6.8-8.81s6.88,1.75,6.88,8.81-4,8.8-6.88,8.8-6.8-1.74-6.8-8.8m-5.24,0c0,11.87,8.78,13.29,12,13.29s12.09-1.42,12.09-13.29-8.74-13.26-12.09-13.26-12,1.46-12,13.26"></path><polygon class="cls-1" points="153.73 526.54 158.7 526.54 158.7 551.76 153.42 551.76 143.17 533.8 143.06 533.8 143.06 551.76 138.21 551.76 138.21 526.54 143.74 526.54 153.72 544.12 153.73 544.12 153.73 526.54"></polygon><polygon class="cls-1" points="182.16 531 168.84 531 168.84 536.3 181.11 536.3 181.11 540.78 168.84 540.78 168.84 547.31 182.77 547.31 182.77 551.75 163.68 551.75 163.68 526.54 182.16 526.54 182.16 531"></polygon><path class="cls-1" d="M190.71,544c.07,1.49.74,4.14,5.34,4.14,2.46,0,5.23-.64,5.23-3.34,0-1.94-1.87-2.47-4.54-3.11l-2.68-.6c-4-.9-8-1.83-8-7.4,0-2.85,1.5-7.76,9.65-7.76,7.7,0,9.74,5,9.8,8.13h-5.05c-.12-1.11-.54-3.8-5.11-3.8-2,0-4.4.73-4.4,3,0,2,1.63,2.37,2.65,2.62l6.16,1.54c3.34.82,6.55,2.24,6.55,6.76,0,7.56-7.68,8.25-9.89,8.25-9.16,0-10.74-5.33-10.74-8.48Z"></path><polygon class="cls-1" points="235.28 526.54 240.2 526.54 240.2 551.76 234.96 551.76 224.75 533.8 224.66 533.8 224.66 551.76 219.77 551.76 219.77 526.54 225.31 526.54 235.27 544.12 235.28 544.12 235.28 526.54"></polygon><path class="cls-1" d="M255.17,532.25h.09l3.09,9.93H252Zm-4.59,14.34h9.2l1.64,5.16h5.7l-8.82-25.21h-6.06l-9,25.21h5.52Z"></path><path class="cls-1" d="M286.46,534.81c-.37-1.5-1.24-4.38-5.6-4.38-2.5,0-6.18,1.71-6.18,8.84,0,4.55,1.78,8.56,6.18,8.56a5.33,5.33,0,0,0,5.6-4.67h5.24c-1,5.41-4.52,9.28-10.91,9.28-6.66,0-11.42-4.53-11.42-13.22s5.07-13.33,11.49-13.33c7.56,0,10.57,5.15,10.84,8.92Z"></path><rect class="cls-1" x="295.26" y="526.54" width="5.2" height="25.22"></rect><path class="cls-1" d="M309.53,539.15c0-7.06,4-8.81,6.78-8.81s6.89,1.75,6.89,8.81-4,8.8-6.89,8.8-6.78-1.74-6.78-8.8m-5.22,0c0,11.87,8.67,13.29,12,13.29s12.11-1.42,12.11-13.29-8.75-13.26-12.11-13.26-12,1.46-12,13.26"></path><polygon class="cls-1" points="347.93 526.54 352.76 526.54 352.76 551.76 347.53 551.76 337.3 533.8 337.28 533.8 337.28 551.76 332.37 551.76 332.37 526.54 337.86 526.54 347.82 544.12 347.93 544.12 347.93 526.54"></polygon><path class="cls-1" d="M367.74,532.25h.1l3.1,9.93h-6.42Zm-4.62,14.34h9.32l1.53,5.16h5.75l-8.88-25.21h-6l-9,25.21h5.48Z"></path><polygon class="cls-1" points="388.27 547.19 400.81 547.19 400.81 551.75 383.06 551.75 383.06 526.54 388.27 526.54 388.27 547.19"></polygon><polygon class="cls-1" points="422.85 531 409.53 531 409.53 536.3 421.78 536.3 421.78 540.78 409.53 540.78 409.53 547.31 423.41 547.31 423.41 551.75 404.38 551.75 404.38 526.54 422.85 526.54 422.85 531"></polygon><path class="cls-1" d="M431.43,544c.06,1.49.77,4.14,5.35,4.14,2.44,0,5.2-.64,5.2-3.34,0-1.94-1.89-2.47-4.54-3.11l-2.68-.6c-4-.9-7.94-1.83-7.94-7.4,0-2.85,1.45-7.76,9.61-7.76,7.7,0,9.78,5,9.83,8.13h-5.05c-.13-1.11-.59-3.8-5.18-3.8-1.93,0-4.33.73-4.33,3,0,2,1.58,2.37,2.64,2.62l6.12,1.54c3.46.82,6.6,2.24,6.6,6.76,0,7.56-7.69,8.25-9.9,8.25-9.16,0-10.75-5.33-10.75-8.48Z"></path><path class="cls-1" d="M480.8,543c0,6.61-4,9.49-10.3,9.49-2.33,0-5.71-.57-8-3.08a9.18,9.18,0,0,1-1.94-6.06V526.54h5.31v16.32c0,3.56,2,5.09,4.49,5.09,3.6,0,5-1.74,5-4.79V526.54h5.39Z"></path><polygon class="cls-1" points="501.25 526.54 506.14 526.54 506.14 551.76 500.92 551.76 490.65 533.8 490.6 533.8 490.6 551.76 485.68 551.76 485.68 526.54 491.19 526.54 501.14 544.12 501.25 544.12 501.25 526.54"></polygon><rect class="cls-1" x="510.74" y="526.54" width="5.26" height="25.22"></rect><path class="cls-1" d="M526,530.92h5c2.28,0,5.82.61,5.82,8,0,4.18-1.48,8.51-5.72,8.51H526v-16.5m-5.12,20.83h10.84c8.31,0,10.43-7.79,10.43-13.19,0-4.76-1.75-12-10.24-12h-11Z"></path><path class="cls-1" d="M556,532.25h.12l3.06,9.93h-6.34Zm-4.57,14.34h9.22l1.67,5.16H568l-8.8-25.21h-6l-9,25.21h5.56Z"></path><path class="cls-1" d="M575.05,544c.07,1.49.79,4.14,5.34,4.14,2.49,0,5.26-.64,5.26-3.34,0-1.94-1.89-2.47-4.55-3.11l-2.7-.6c-4-.9-7.95-1.83-7.95-7.4,0-2.85,1.51-7.76,9.63-7.76,7.69,0,9.79,5,9.81,8.13h-5c-.14-1.11-.58-3.8-5.13-3.8-2,0-4.38.73-4.38,3,0,2,1.61,2.37,2.67,2.62l6.08,1.54c3.42.82,6.59,2.24,6.59,6.76,0,7.56-7.72,8.25-9.9,8.25-9.13,0-10.73-5.33-10.73-8.48Z"></path></svg>